# xmcd
# 
# Track frame offsets:
#     150
#     20080
#     40581
#     62329
#     84394
#     114044
#     133188
#     164528
#     183071
#     202375
#     224345
# 
# Disc length: 3247
# 
# Revision: 0
# Processed by: cddbd v1.5.2PL0 Copyright (c) Steve Scherf et al.
# Submitted via: fre:ac v1.0.17
# 
DISCID=930cad0b
DTITLE=Mighty Sam McClain - Give It Up to Love
DYEAR=1992
DGENRE=Blues
TTITLE0=Give It up to Love
TTITLE1=Too Proud
TTITLE2=What You Want Me to Do?
TTITLE3=Here I Go Falling in Love Again
TTITLE4=Got to Have Your Love
TTITLE5=Child of the Mighty Mighty
TTITLE6=I'm Tired of These Blues
TTITLE7=I Feel Good
TTITLE8=Love Me I You Want To
TTITLE9=Don't Turn Back Now
TTITLE10=Lonesome Road
EXTD=
EXTT0=
EXTT1=
EXTT2=
EXTT3=
EXTT4=
EXTT5=
EXTT6=
EXTT7=
EXTT8=
EXTT9=
EXTT10=
PLAYORDER=
